<svg width="16" height="12" viewBox="0 0 16 12" fill="none" xmlns="http://www.w3.org/2000/svg">
<path d="M0 12V8.43466C0 7.42228 0.201681 6.3879 0.605042 5.3315C1.0084 4.2751 1.54062 3.27923 2.20168 2.34388C2.86275 1.40853 3.57983 0.627234 4.35294 0L7.51261 1.83219C6.88516 2.80055 6.36975 3.81293 5.96639 4.86932C5.57423 5.92572 5.37815 7.10316 5.37815 8.40165V12H0ZM8.4874 12V8.43466C8.4874 7.42228 8.68908 6.3879 9.09244 5.3315C9.4958 4.2751 10.028 3.27923 10.6891 2.34388C11.3501 1.40853 12.0672 0.627234 12.8403 0L16 1.83219C15.3725 2.80055 14.8571 3.81293 14.4538 4.86932C14.0616 5.92572 13.8655 7.10316 13.8655 8.40165V12H8.4874Z" fill="#28B4F2"/>
</svg>
