<svg width="64" height="64" viewBox="0 0 64 64" fill="none" xmlns="http://www.w3.org/2000/svg">
<path d="M3.08092 25.5918C34.3138 25.5918 49.6816 15.2636 56.722 7.75534V13.904C56.722 14.5066 57.2054 14.9956 57.801 14.9956C58.3966 14.9956 58.8799 14.5066 58.8799 13.904L58.879 4.85299C58.879 4.83247 58.8691 4.81673 58.8676 4.79621C58.8634 4.71892 58.8417 4.64784 58.8229 4.57483C58.8054 4.5109 58.7941 4.44553 58.7653 4.38541C58.7366 4.32577 58.6951 4.27472 58.6559 4.2208C58.6125 4.15973 58.5696 4.10009 58.5135 4.0476C58.4989 4.03472 58.4918 4.01564 58.4777 4.00228C58.4404 3.97174 58.3928 3.96172 58.3513 3.93691C58.2881 3.89779 58.2277 3.85962 58.157 3.83338C58.0834 3.80713 58.0132 3.79855 57.9382 3.78948C57.892 3.78375 57.8491 3.76038 57.8 3.76038H48.0004C47.4048 3.76038 46.9214 4.24942 46.9214 4.85202C46.9214 5.45463 47.4048 5.94367 48.0004 5.94367H55.4356C48.8204 13.1734 33.998 23.4076 3.07894 23.4076C2.48335 23.4076 2 23.8966 2 24.4993C2.00047 25.1023 2.48524 25.5914 3.08083 25.5914L3.08092 25.5918Z" fill="#28B4F2"/>
<path d="M16.924 39.1887H3.0809C2.48531 39.1887 2.00195 39.6778 2.00195 40.2804V60.9078C2.00195 61.5104 2.48531 61.9994 3.0809 61.9994H16.924C17.5195 61.9994 18.0029 61.5104 18.0029 60.9078L18.0024 40.2804C18.0024 39.6763 17.5195 39.1887 16.924 39.1887ZM15.845 59.8149H4.1596V41.3714H15.845V59.8149Z" fill="#28B4F2"/>
<path d="M60.9198 18.5637H59.1863C59.0854 18.5637 58.9934 18.5957 58.9015 18.6219C58.8713 18.6305 58.8397 18.6291 58.8095 18.641C58.6846 18.6892 58.5724 18.7603 58.4743 18.8505C58.4686 18.8548 58.4596 18.8562 58.454 18.8619C58.4526 18.8633 58.4497 18.8648 58.4469 18.8676C58.4384 18.8762 58.4266 18.8839 58.4167 18.8939C55.205 21.9179 51.248 24.6031 46.6563 26.8794C46.6549 26.8809 46.6535 26.8823 46.6507 26.8823C46.6332 26.8909 46.6191 26.8999 46.6016 26.9085C46.5715 26.9233 46.5526 26.9505 46.5224 26.9696C46.4361 27.0235 46.3527 27.0789 46.2852 27.1542C46.248 27.1962 46.2249 27.2459 46.1947 27.2912C46.1485 27.3594 46.1027 27.4267 46.0726 27.5035C46.0466 27.5717 46.0424 27.6433 46.0311 27.7158C46.0226 27.774 45.998 27.8251 45.998 27.8847V60.9059C45.998 61.5085 46.4814 61.9976 47.077 61.9976H60.9213C61.5168 61.9976 62.0002 61.5085 62.0002 60.9059L61.9997 19.656C61.9983 19.0534 61.515 18.5643 60.9199 18.5643L60.9198 18.5637ZM59.8408 59.8149H48.1539V28.5464C52.5654 26.3025 56.4102 23.6855 59.5918 20.7474H59.8408L59.8408 59.8149Z" fill="#28B4F2"/>
<path d="M39.9439 30.9186C39.9396 30.9057 39.9292 30.8981 39.925 30.8866C39.8948 30.8079 39.8486 30.7439 39.8043 30.6757C39.7713 30.6247 39.7439 30.5693 39.7034 30.5259C39.6529 30.4705 39.5897 30.4343 39.5279 30.3904C39.4761 30.3541 39.4303 30.3102 39.3728 30.284C39.3096 30.2535 39.2389 30.2449 39.17 30.2272C39.1012 30.211 39.0361 30.1881 38.9644 30.1852C38.9484 30.1852 38.9371 30.1766 38.9229 30.1766C38.8541 30.1766 38.7951 30.2043 38.7286 30.2158C38.6782 30.2243 38.6263 30.2172 38.5763 30.2363C34.3733 31.68 29.7694 32.8471 24.8926 33.703C24.8525 33.7102 24.8223 33.7336 24.7832 33.745C24.7096 33.767 24.6408 33.7918 24.5733 33.828C24.5144 33.86 24.4625 33.8977 24.4121 33.9387C24.356 33.9841 24.3055 34.0303 24.2598 34.0871C24.2164 34.1396 24.182 34.1935 24.1489 34.2532C24.1145 34.3157 24.0872 34.3767 24.0641 34.4454C24.041 34.5137 24.0311 34.5824 24.0226 34.6563C24.0183 34.6969 23.998 34.7351 23.998 34.7785V60.9084C23.998 61.511 24.4814 62.0001 25.077 62.0001H38.9213C39.5168 62.0001 40.0002 61.511 40.0002 60.9084L39.9997 31.2669C39.9997 31.2044 39.9738 31.149 39.9653 31.088C39.9568 31.0312 39.9639 30.9744 39.9436 30.9176L39.9439 30.9186ZM26.1575 59.815V35.6797C30.2757 34.9201 34.1907 33.9377 37.8444 32.7573V59.8143L26.1575 59.815Z" fill="#28B4F2"/>
<path d="M3.36876 16.8758C3.6102 16.9502 3.86201 17.0113 4.12232 17.059C4.38121 17.1086 4.6618 17.1448 4.96218 17.1697C5.22531 17.1916 5.51863 17.2031 5.83834 17.2045V18.9841L6.11892 19.048C6.2354 19.0743 6.35047 19.0934 6.46976 19.1077C6.58624 19.1206 6.70272 19.1268 6.81919 19.1268C6.92293 19.1268 7.03327 19.121 7.15305 19.1077C7.27377 19.0929 7.38742 19.0743 7.49399 19.0466L7.76562 18.9769V16.9774C8.71488 16.7445 9.47599 16.3151 10.0282 15.6982C10.6454 15.0082 10.9586 14.1131 10.9586 13.0348C10.9586 12.4933 10.8836 12.0205 10.7355 11.6307C10.5893 11.2395 10.379 10.8945 10.1116 10.6034C9.85274 10.321 9.5349 10.0753 9.16802 9.86821C8.81718 9.67354 8.42719 9.48556 8.01315 9.31094L7.35579 9.03039C7.00212 8.88057 6.6857 8.7422 6.40653 8.61577C6.14905 8.49888 5.93025 8.36958 5.7534 8.23122C5.59496 8.10908 5.47565 7.96642 5.39643 7.81374C5.31909 7.66058 5.27996 7.47451 5.27996 7.25456C5.27996 6.79319 5.42237 6.46731 5.71427 6.25929C6.04201 6.02502 6.53574 5.90718 7.18127 5.90718C7.6816 5.90718 8.12629 5.94773 8.5045 6.03075C8.88551 6.11234 9.22788 6.21111 9.52449 6.32179L9.8494 6.44393L9.98191 6.1195C10.1903 5.61136 10.3257 5.09226 10.3861 4.57415L10.4191 4.2917L10.1578 4.18959C9.80225 4.05314 9.37642 3.94101 8.89169 3.85656C8.52245 3.79263 8.1452 3.74587 7.76559 3.71677V2.1509L7.49397 2.08124C7.07805 1.97628 6.51736 1.96912 6.10568 2.08268L5.83972 2.15567V3.82035C4.90743 3.99784 4.1652 4.37477 3.6333 4.94397C3.03489 5.5814 2.73119 6.40491 2.73119 7.39305C2.73119 7.88639 2.7958 8.32152 2.92548 8.68556C3.05516 9.05389 3.24473 9.3812 3.48948 9.65459C3.72526 9.91939 4.00442 10.1508 4.32226 10.3431C4.62265 10.5249 4.95934 10.6923 5.31773 10.8393L6.14344 11.1857C6.54474 11.3603 6.89418 11.5144 7.1922 11.647C7.45958 11.7663 7.68122 11.8989 7.85098 12.0402C8.0047 12.1695 8.11694 12.3136 8.1905 12.4839C8.26831 12.6585 8.30698 12.8842 8.30698 13.1562C8.30698 13.6977 8.1259 14.1066 7.75194 14.4091C7.36007 14.7264 6.72723 14.8881 5.87135 14.8881C5.3149 14.8881 4.83721 14.8414 4.45143 14.7498C4.0473 14.6539 3.65307 14.5417 3.27205 14.4167L2.94714 14.3089L2.82642 14.6333C2.72834 14.8881 2.64205 15.1501 2.5647 15.4206C2.48406 15.7016 2.43077 15.9869 2.40484 16.266L2.37891 16.5528L2.64912 16.6444C2.89528 16.7274 3.13388 16.8047 3.36872 16.8758L3.36876 16.8758Z" fill="#28B4F2"/>
</svg>
